Coordinates
version=1
nRows=26
nColumns=22
inDegrees=yes

Units are S.I. units (second, meters, Newtons, ...)
If the header above contains a line with 'inDegrees', this indicates whether rotational values are in degrees (yes) or radians (no).

endheader
time	pelvis_tilt	pelvis_list	pelvis_rotation	pelvis_tx	pelvis_ty	pelvis_tz	hip_flexion_r	hip_adduction_r	hip_rotation_r	knee_angle_r	ankle_angle_r	subtalar_angle_r	hip_flexion_l	hip_adduction_l	hip_rotation_l	knee_angle_l	ankle_angle_l	subtalar_angle_l	lumbar_extension	lumbar_bending	lumbar_rotation
      3.87000000	     -3.19454251	     -2.63142534	    -94.93857855	      0.08168502	      0.90888535	      0.85752800	     -2.65059012	      8.97294000	      5.24964646	    -23.49832029	     14.91107009	     -5.83923550	     19.25807836	    -10.69320173	    -16.76359090	     -8.74267919	      0.86356220	     11.04077322	     -8.32396138	      1.46553087	      4.89178471
      3.88000000	     -3.28889736	     -2.62400609	    -95.28780529	      0.08313929	      0.90796133	      0.86490447	     -3.04204540	      8.87396151	      5.41340964	    -23.76977908	     15.19601830	     -5.58508179	     19.19275728	    -10.56615230	    -16.84894347	     -8.33049328	      0.78731954	     11.37947158	     -8.23814804	      1.52162154	      4.91631358
      3.89000000	     -3.40853895	     -2.59881816	    -95.60828035	      0.08460220	      0.90705480	      0.87230148	     -3.40187498	      8.81032134	      5.57533241	    -24.06407624	     15.46378965	     -5.44579207	     19.19796695	    -10.49309900	    -16.77167003	     -8.30514240	      0.71551825	     11.40272639	     -8.13395006	      1.60543606	      4.93439332
      3.90000000	     -3.45263680	     -2.61961984	    -95.97536323	      0.08598903	      0.90631313	      0.87981283	     -3.79242778	      8.65697745	      5.81558615	    -24.39684504	     15.67154154	     -5.11917752	     19.14421195	    -10.37991100	    -16.71345808	     -8.57429655	      0.58389127	     11.22659862	     -8.06312505	      1.58364735	      4.98595132
      3.91000000	     -3.50446819	     -2.63296336	    -96.30633872	      0.08741557	      0.90563481	      0.88734529	     -4.13767883	      8.51335036	      6.02145013	    -24.79237520	     15.82262675	     -4.80117259	     19.12350954	    -10.28145815	    -16.45032048	     -9.09990191	      0.36628065	     10.67855333	     -7.98259828	      1.56960426	      5.00242275
      3.92000000	     -3.51289292	     -2.62921396	    -96.62781699	      0.08886713	      0.90503180	      0.89494054	     -4.43006807	      8.32392471	      6.24320450	    -25.24201606	     15.92789285	     -4.52626614	     19.12315308	    -10.14443445	    -16.03720970	     -9.80168001	      0.03814369	      9.91943682	     -7.86683274	      1.50372160	      5.02545506
      3.93000000	     -3.47338557	     -2.62166110	    -96.93592832	      0.09036638	      0.90453993	      0.90258386	     -4.66877902	      8.08143809	      6.46958640	    -25.76905739	     15.96258913	     -4.22514935	     19.12753598	     -9.95339237	    -15.50190290	    -10.61214880	     -0.39735772	      8.97051194	     -7.73303561	      1.38245049	      5.03964160
      3.94000000	     -3.37936758	     -2.60857344	    -97.22817659	      0.09193328	      0.90417807	      0.91026360	     -4.84361839	      7.77991421	      6.70331656	    -26.38161941	     15.91805080	     -3.88093329	     19.14222055	     -9.69947794	    -14.88745853	    -11.48222520	     -0.93516727	      7.89535111	     -7.57977196	      1.20205374	      5.04031592
      3.95000000	     -3.23253439	     -2.58979303	    -97.50317305	      0.09355315	      0.90397459	      0.91796944	     -4.95022812	      7.42460077	      6.94524012	    -27.08092941	     15.77125001	     -3.48007839	     19.17439566	     -9.38950241	    -14.24855580	    -12.38686203	     -1.54699026	      6.77012301	     -7.40828367	      0.96507820	      5.01992459
      3.96000000	     -3.05991420	     -2.57504249	    -97.76066084	      0.09519246	      0.90395769	      0.92568384	     -4.99787939	      7.04440727	      7.17369671	    -27.86637822	     15.50332665	     -2.99514352	     19.23668066	     -9.06679537	    -13.66123289	    -13.35673083	     -2.16051633	      5.63342575	     -7.23489453	      0.69439568	      5.00969042
      3.97000000	     -2.85614850	     -2.56431795	    -98.00027447	      0.09683189	      0.90414681	      0.93340286	     -4.97303453	      6.63948474	      7.40143316	    -28.75987075	     15.07659587	     -2.43429672	     19.31464787	     -8.73056817	    -13.15502621	    -14.36059577	     -2.71524202	      4.58114273	     -7.06057699	      0.38649301	      4.96424828
      3.98000000	     -2.65259931	     -2.56661565	    -98.22413055	      0.09842854	      0.90456174	      0.94112911	     -4.89126049	      6.24246764	      7.61255693	    -29.75052712	     14.46966269	     -1.77885489	     19.40252226	     -8.42517164	    -12.77599392	    -15.42087745	     -3.13886293	      3.63758176	     -6.89836609	      0.07224197	      4.90767748
      3.99000000	     -2.46462319	     -2.58259588	    -98.43878248	      0.09995477	      0.90520788	      0.94885838	     -4.74594207	      5.86889836	      7.80181888	    -30.84784702	     13.64615360	     -1.01914027	     19.47697526	     -8.16728106	    -12.52835745	    -16.50694718	     -3.41017016	      2.83300842	     -6.75175893	     -0.23128907	      4.83764485
      4.00000000	     -2.31990938	     -2.62817640	    -98.63458715	      0.10144125	      0.90608972	      0.95660667	     -4.56600479	      5.53621935	      7.92961398	    -32.02788806	     12.60646644	     -0.14963035	     19.52041499	     -7.97646610	    -12.39236498	    -17.62852888	     -3.48142367	      2.18929894	     -6.64213372	     -0.48804472	      4.78213175
      4.01000000	     -2.20998203	     -2.69415879	    -98.81855428	      0.10287144	      0.90718755	      0.96435185	     -4.32283621	      5.23613274	      7.99863408	    -33.31349193	     11.31859660	      0.81279377	     19.49907099	     -7.83167209	    -12.33190540	    -18.69501584	     -3.41769727	      1.71085976	     -6.55585499	     -0.70653393	      4.71071119
      4.02000000	     -2.13325012	     -2.77422026	    -98.99264540	      0.10428247	      0.90846014	      0.97208962	     -4.00096884	      4.95831702	      7.99044099	    -34.70872447	      9.77660750	      1.87062955	     19.40024986	     -7.71751541	    -12.32495268	    -19.66832137	     -3.23593348	      1.36029526	     -6.48682843	     -0.88055391	      4.61893432
      4.03000000	     -2.09662450	     -2.85727600	    -99.17698641	      0.10566521	      0.90988542	      0.97976272	     -3.57983212	      4.71039178	      7.93214368	    -36.21109965	      7.94017180	      2.92790432	     19.20696340	     -7.62995256	    -12.32081967	    -20.48746752	     -3.03067701	      1.10496406	     -6.42826023	     -1.00094517	      4.57341468
      4.04000000	     -2.07180512	     -2.94156269	    -99.35100589	      0.10710721	      0.91136604	      0.98738001	     -3.04250371	      4.44897312	      7.77602841	    -37.83582037	      5.90813718	      4.04120989	     18.94024402	     -7.53878178	    -12.40857982	    -21.18104570	     -2.71399493	      0.88321323	     -6.37366405	     -1.08509548	      4.48536803
      4.05000000	     -2.05341881	     -3.01405570	    -99.53753421	      0.10854689	      0.91285866	      0.99486394	     -2.37500544	      4.18513791	      7.60430299	    -39.56537326	      3.65528638	      5.11523620	     18.60121973	     -7.43696044	    -12.53785085	    -21.71653233	     -2.35025775	      0.65975733	     -6.31445313	     -1.14993084	      4.41489376
      4.06000000	     -2.04472745	     -3.06820989	    -99.74967009	      0.10998562	      0.91432042	      1.00217579	     -1.56024341	      3.92002503	      7.41907925	    -41.40586363	      1.23641313	      6.05589706	     18.17743393	     -7.32934476	    -12.74244680	    -22.05187137	     -1.97906585	      0.42328695	     -6.24995557	     -1.18354414	      4.35995603
      4.07000000	     -2.03120909	     -3.10539646	    -99.98743866	      0.11140793	      0.91570059	      1.00927168	     -0.60240185	      3.64064422	      7.23332954	    -43.34016400	     -1.23923416	      6.87126731	     17.68770029	     -7.20545173	    -13.02921947	    -22.21766266	     -1.57813005	      0.16761990	     -6.18544918	     -1.20703969	      4.30704810
      4.08000000	     -2.00286572	     -3.12854317	   -100.25341329	      0.11278836	      0.91697430	      1.01612149	      0.48630270	      3.34136576	      7.06296249	    -45.34316378	     -3.65567282	      7.54427739	     17.13903433	     -7.05747480	    -13.39547685	    -22.22317449	     -1.16447957	     -0.09029739	     -6.12651246	     -1.23613565	      4.25869744
      4.09000000	     -1.95203665	     -3.14401857	   -100.54529457	      0.11410650	      0.91812976	      1.02270068	      1.68474019	      3.01701970	      6.91298410	    -47.38275672	     -5.86396152	      8.09356388	     16.54443810	     -6.88017568	    -13.83093901	    -22.09601739	     -0.74500147	     -0.33473114	     -6.08142676	     -1.28460764	      4.20651106
      4.10000000	     -1.87775515	     -3.17056709	   -100.86022249	      0.11534255	      0.91919355	      1.02899875	      2.95201597	      2.66087778	      6.76807629	    -49.41901168	     -7.71359714	      8.50002926	     15.90011540	     -6.67248241	    -14.31787233	    -21.85814597	     -0.36158736	     -0.52642349	     -6.07416168	     -1.36214189	      4.16769281
      4.11000000	     -1.75625515	     -3.19340854	   -101.19148036	      0.11650337	      0.92012730	      1.03501975	      4.28167706	      2.25974225	      6.65480860	    -51.40970376	     -9.04125379	      8.85438030	     15.25817004	     -6.41568547	    -14.84679973	    -21.56799762	      0.02659650	     -0.71096046	     -6.07828998	     -1.49086063	      4.08945961
      4.12000000	     -1.60789973	     -3.24128623	   -101.53107310	      0.11757848	      0.92101077	      1.04079224	      5.60143389	      1.83323802	      6.56833500	    -53.28570976	     -9.78853125	      9.08418164	     14.58834082	     -6.11868383	    -15.35222366	    -21.22506027	      0.38484781	     -0.83985105	     -6.12706051	     -1.65732158	      3.98510818
